<?xml version="1.0" encoding="iso-8859-1"?>
<!-- Generator: Adobe Illustrator 19.0.0, SVG Export Plug-In . SVG Version: 6.00 Build 0)  -->
<svg version="1.1" id="Layer_1" xmlns="http://www.w3.org/2000/svg" xmlns:xlink="http://www.w3.org/1999/xlink" x="0px" y="0px"
	 viewBox="0 0 512 512" style="enable-background:new 0 0 512 512;" xml:space="preserve">
<g>
	<g>
		<path d="M463.531,174.736c1.365-4.503,0.341-8.127-1.063-12.405c-2.902-8.849-10.542-11.362-19.107-13.236
			c-11.009-2.409-22.587-2.953-33.768-4.162c-4.946-0.535-10.471-0.763-15.443-0.406c-2.049,0.147-4.106,0.468-6.145,0.762
			c6.513-9.396,12.994-18.868,19.238-28.393c8.562-13.064,17.392-25.923,26.281-38.775c4.115-5.949,8.334-11.758,12.045-17.981
			c3.635-6.093,5.693-12.958,8.059-19.608c3.7-10.4,1.478-24.645-6.977-32.329c-4.174-3.793-11.046-6.724-16.588-7.806
			c-7.263-1.42-13.363,1.12-19.211,5.219c-5.266,3.691-9.442,7.841-13.265,13.071c-4.223,5.779-6.409,12.645-10.098,18.722
			c-7.595,12.51-11.366,26.74-17.839,39.782c-3.508,7.068-6.588,14.241-9.496,21.477c-1.351,3.01-2.718,5.983-4.142,8.975
			c-3.417,7.179-6.865,14.381-10.043,21.663c-1.697,3.889-3.11,7.892-4.497,11.906c-4.167-1.388-9.179-1.003-13.5-1.013
			c-3.626-0.008-7.255-0.307-10.858-0.697c-4.914-0.531-10.963-0.855-16.594-0.086c-7.921-0.432-15.812-0.115-23.808,0.574
			c-11.349,0.977-22.714,1.64-33.97,3.532c-10.498,1.765-22.316,4.035-30.838,10.82c-8.139,6.48-9.142,16.223-4.111,25.086
			c1.063,1.872,2.644,2.936,2.151,5.113c-0.375,1.654-2.118,3.216-2.791,4.844c-2.146,5.185,0.285,8.439,1.33,13.434
			c0.888,4.241-2.221,7.982-1.888,12.396c0.345,4.568,3.496,8.659,7.305,11.054c0.765,0.481,1.532,0.936,2.301,1.381
			c-0.175,4.474-0.915,8.917-1.05,13.416c-0.128,4.261-0.49,8.507-0.751,12.76c-12.165,5.286-23.468,11.83-34.602,19.215
			c-5.745,3.811-11.541,7.558-17.202,11.491c-5.049,3.507-10.344,6.27-14.075,11.317c-7.714,10.435-9.213,25.478-12.517,37.708
			c-1.89,6.996-4.154,13.827-5.5,20.966c-0.744,3.943-2.605,9.977-1.998,14.482c-1.398,0.328-2.793,0.653-4.184,0.965
			c-8.684,1.948-17.236,4.348-25.899,6.332c-6.022,1.379-14.006,1.53-18.99,5.62c-4.293,3.522-4.473,10.314-4.414,15.415
			c0.085,7.283,0.781,14.696,2.435,21.777c0.097,0.417,0.232,0.793,0.395,1.134c-6.861,0.734-13.734,0.65-20.571,1.595
			c-5.239,0.724-9.42,3.142-9.451,8.985c-0.019,3.571,1.373,7.059,1.677,10.609c0.317,3.7,0.752,7.346,1.247,11.031
			c0.497,3.7,1.305,7.338,1.783,11.039c0.303,2.348,0.41,4.694,1.509,6.85c2.827,5.54,9.933,9.111,15.2,11.928
			c6.019,3.219,12.078,6.47,18.238,9.411c7.049,3.365,14.547,5.872,21.246,9.959c5.413,3.303,10.935,6.936,17.044,8.862
			c6.339,1.999,13.811,1.676,20.304,0.786c16.878-2.313,33.563-6.575,50.249-9.983c15.651-3.197,31.136-8.444,46.415-13.002
			c0.731-0.218,1.343-0.541,1.857-0.933c8.202,4.88,19.001,7.266,27.934,9.17c11.026,2.351,22.852,5.691,34.137,6.087
			c24.584,0.864,49.504,0.872,73.642-4.563c11.45-2.578,22.219-5.488,32.82-10.556c9.573-4.577,16.04-12.63,21.605-21.532
			c11.968-19.144,13.204-42.126,14.431-64.027c1.581-28.231-0.237-56.418-0.225-84.658c0.005-13.14-0.872-26.337-0.586-39.439
			c0.143-6.592-0.529-13.151-0.546-19.74c-0.018-7.057-1.845-13.514-2.362-20.463c-0.061-0.811-0.263-1.523-0.571-2.136
			c2.207-1.054,4.301-2.328,6.208-3.935c6.467-5.447,10.35-13.944,8.458-22.463c-0.439-1.975-1.725-3.853-1.693-5.896
			c0.032-2.06,1.424-3.783,1.859-5.838c0.885-4.181-2.523-7.605-1.977-11.244C458.307,182.298,462.358,178.604,463.531,174.736z
			 M397.065,155.674c8.473,0.981,16.945,1.689,25.428,2.764c7.252,0.92,15.44,1.128,22.585,3.434
			c-1.743,0.919-3.481,1.848-5.231,2.477c-4.131,1.485-8.216,3.08-12.341,4.576c-9.346,3.39-19.393,5.347-29.227,6.626
			c-8.426,1.097-16.734,2.928-25.14,4.055c-3.248,0.435-7.007,0.507-10.763,0.752c0.283-0.459,0.571-0.92,0.876-1.382
			c2.02-3.062,4.474-5.928,6.817-8.749c4.259-5.127,8.017-10.685,11.832-16.161c0.098-0.141,0.196-0.282,0.294-0.423
			C386.781,155.356,391.964,155.083,397.065,155.674z M343.504,163.054c1.012-2.004,1.869-4.065,2.839-6.117
			c2.99-6.329,6.024-12.592,8.777-19.036c5.547-12.984,10.114-26.373,15.921-39.244c2.881-6.384,6.311-12.472,9.323-18.786
			c2.928-6.137,5.095-12.597,7.948-18.748c2.543-5.481,5.193-11.308,8.483-16.378c3.37-5.193,5.876-10.807,9.083-16.103
			c2.93-4.838,6.709-8.975,11.253-12.283c5.985-4.359,10.15-6.147,17.362-3.147c5.534,2.302,9.025,5.991,10.398,11.846
			c1.547,6.594,0.134,11.646-2.219,17.829c-4.909,12.894-13.133,23.003-21.026,34.175c-8.053,11.397-16.033,22.746-23.724,34.384
			c-7.899,11.952-16.332,23.613-24.381,35.473c-3.538,5.214-7.244,10.691-11.276,15.505c-2.558,3.054-5.058,6.187-7.418,9.398
			c-1.354,1.842-2.216,3.737-3.096,5.671c-2.854-3.206-6.608-5.635-10.819-6.856C341.78,168.106,342.627,165.575,343.504,163.054z
			 M329.208,238.59c0.013,0.155,0.027,0.31,0.043,0.467c0.953,9.358,4.977,17.959,7.412,26.754
			c5.376,19.417,4.898,40.637,3.556,60.558c-0.306,4.541-0.785,9.092-1.771,13.548c-0.702,3.173-1.936,9.356-5.098,11.069
			c-4.04,2.188-11.415-0.841-13.85-4.187c-2.419-3.325-2.238-7.789-2.254-11.716c-0.043-10.26,1.711-20.394,1.732-30.614
			c0.017-8.378-0.192-18.093-6.439-24.326c-3.156-3.149-5.425-6.148-5.46-10.819c-0.037-4.93,0.523-10.356,1.351-15.202
			c1.553-9.093,4.694-17.855,3.457-27.216c-0.805-6.092-3.586-14.365-11.262-14.432c-2.835-0.025-6.333,2.304-8.56,3.837
			c-1.286,0.885-2.82,2.855-4.453,3.027c-3.163,0.333-2.494-3.544-1.885-5.601c1.242-4.189,3.71-7.574,3.175-12.165
			c-0.488-4.194-3.261-8.003-6.954-10.021c-3.93-2.147-8.158-1.355-12.41-1.078c-3.961,0.258-12.569,1.37-15.685-1.702
			c-4.14-4.081,0.946-10.055,4.434-12.433c4.436-3.024,9.497-5.242,14.662-6.607c2.803-0.741,5.705-1.442,8.66-2.047
			c6.899-0.342,13.737-0.991,20.728-0.381c4.332,0.378,9.163,0.718,12.464,3.725c3.257,2.967,6.338,5.643,10.427,7.462
			c7.306,3.249,19.291,0.478,21.026,11.305c0.664,4.143-0.999,8.514-2.722,12.192c-2.019,4.31-3.027,8.94-5.394,13.101
			C333.783,222.744,328.472,229.422,329.208,238.59z M351.265,289.704c-1.005-11.539-2.731-23.086-6.57-34.037
			c-0.535-1.527-1.082-3.056-1.611-4.592c6.911,0.283,13.884,0.071,20.743-0.319c9.965-0.568,19.801-1.878,29.652-3.477
			c7.971-1.294,15.865-2.83,23.749-4.488c0.357,3.417,0.823,6.733,0.77,10.271c-0.072,4.728-0.503,9.332-0.97,14.035
			c-0.902,9.086-2.088,17.236-0.778,26.401c1.473,10.3,1.716,20.389,1.366,30.782c-0.315,9.383-2.144,18.842-1.895,28.205
			c0.257,9.639-1.77,19.245-0.852,28.873c0.915,9.593,1.318,19.066-0.205,28.66c-0.686,4.321-2.004,8.36-3.322,12.511
			c-1.367,4.308-2.089,8.688-3.807,12.902c-3.417,8.383-8.157,16.692-16.205,21.297c-16.63,9.516-38.081,10.432-56.74,10.822
			c-10.332,0.216-19.96-0.794-30.065-2.932c-4.595-0.972-9.343-1.797-13.844-3.144c-4.649-1.391-9.043-3.559-13.65-5.091
			c-15.473-5.144-28.576-21.324-31.875-37.288c-1.986-9.612-0.339-20.727,0.686-30.376c1.038-9.778,1.152-19.903,1.276-29.728
			c0.137-10.888-1.068-21.252-1.923-32.073c-0.878-11.116-0.479-22.137,0.639-33.208c1.107-10.958,2.341-22.207,1.098-33.207
			c-0.89-7.873-3.136-15.427-5.193-23.022c0.419,0.112,0.836,0.225,1.259,0.337c10.772,2.829,21.612,5.749,32.707,6.896
			c5.509,0.57,10.983,1.356,16.49,1.895c2.679,0.262,5.211,0.725,7.555,0.188c-1.046,4.226-1.904,8.437-2.382,12.808
			c-0.56,5.124-1.702,10.353-0.398,15.469c1.118,4.385,3.788,8.369,6.951,11.54c1.673,1.677,2.749,2.393,3.455,4.645
			c1.099,3.502,1.283,7.455,1.379,11.108c0.308,11.688-2.067,23.311-1.827,35.056c0.193,9.455,3.341,17.902,12.377,22.145
			c8.851,4.157,19.887,3.473,25.291-5.43c5.257-8.66,5.88-19.697,6.574-29.518C351.977,313.186,352.26,301.126,351.265,289.704z
			 M218.825,207.977c6.622,4.12,14.302,6.213,21.759,8.409c7.431,2.188,14.668,4.728,22.314,6.144
			c4.259,0.789,9.227,2.132,13.963,2.289c4.428,6.83,13.646,6.829,19.429,0.835c1.069-1.107,2.524-5.147,3.721-5.755
			c3.336-1.693,3.499,4.393,3.594,6.15c0.171,3.167,0.62,7.379-2.174,9.231c-2.948,1.954-7.723,0.564-10.93,0.272
			c-4.083-0.372-8.087-1.431-12.174-1.743c-8.349-0.637-16.205-2.668-24.34-4.547c-9.066-2.094-20.034-3.009-28.259-7.577
			c-3.123-1.734-9.954-3.557-8.936-7.89C217.32,211.54,218.221,209.852,218.825,207.977z M217.762,193.179
			c0.565-1.717,1.425-3.078,2.178-4.484c3.836,1.76,8.708,2.248,12.356,3.501c4.39,1.509,9.061,3.421,13.786,3.784
			c6.024,6.123,17.661,5.414,25.363,4.817c2.369-0.184,5.685-1.234,6.739,1.566c0.837,2.222-1.301,5.014-2.107,7.101
			c-0.805,2.085-1.334,4.258-1.463,6.435c-2.94-0.325-5.898-0.516-8.631-0.962c-6.351-1.038-12.253-2.995-18.381-4.781
			c-7.174-2.091-14.667-3.24-21.757-5.642c-2.34-0.792-4.592-2.021-6.814-3.181C218.328,198.549,217.016,195.445,217.762,193.179z
			 M247.824,154.174c10.258-1.865,20.546-2.47,30.882-3.596c10.524-1.146,21.154-1.2,31.682,0.022
			c8.223,0.954,16.852,1.242,25.149,0.028c0.867,0.044,1.729,0.056,2.582,0.013c-2.313,6.085-5.144,12.42-6.627,18.772
			c-0.4-0.074-0.795-0.163-1.181-0.276c-2.894-0.846-5.373-2.964-7.565-4.906c-3.988-3.534-7.887-5.709-13.287-6.318
			c-5.72-0.645-11.572-0.672-17.347-0.21c-4.488-0.057-9.033,0.43-13.359,1.011c-10.458,1.403-21.083,4.209-29.293,11.217
			c-0.286,0.244-0.556,0.507-0.829,0.767c-1.675-1.254-3.565-1.652-5.777-2.004c-3.357-0.534-6.74-1.349-10.023-2.264
			c-3.929-1.096-7.538-3.01-11.26-4.62C229.23,157.443,239.33,155.719,247.824,154.174z M225.131,174.378
			c3.324,1.707,6.98,2.932,10.55,3.999c2.411,0.72,4.851,0.818,7.256,1.196c-0.831,2.49-1.165,5.113-0.876,7.691
			c-2.878-0.822-5.8-1.519-8.659-2.256c-3.276-0.845-7.862-1.954-11.927-1.865c-0.093-5.562-5.411-10.339-5.272-14.847
			C218.785,170.938,222.471,173.011,225.131,174.378z M141.602,357.581c1.263-6.814,3.366-13.351,5.208-20.014
			c1.71-6.183,3.353-12.462,4.844-18.702c1.402-5.868,2.871-12.778,6.96-17.43c3.666-4.17,9.664-7.398,14.221-10.584
			c5.125-3.584,10.221-7.288,15.453-10.709c9.097-5.949,17.389-12.756,25.819-19.42c-0.296,12.603-0.678,25.21-1.082,37.811
			c-0.498,15.517-1.227,31.119-2.317,46.667c-5.113,1.192-9.756,5.639-13.491,9.048c-3.136,2.862-8.436,6.549-10.2,10.851
			c-5.784-1.254-11.714-2.625-17.512-2.718c-9.792-0.156-19.537,1.649-29.166,3.837
			C140.933,363.406,141.072,360.436,141.602,357.581z M208.12,427.028c-4.408-1.605-8.896-2.997-13.206-4.861
			c-3.896-1.685-7.854-3.522-11.913-4.987c-0.018-0.113-0.04-0.218-0.055-0.335c-0.315-2.319-0.845-4.426-1.279-6.704
			c-0.106-0.556-0.262-2.076-0.594-3.624c5.575-0.963,10.907-2.909,16.39-4.315c3.245-0.832,6.667-1.541,10.007-2.397
			c0.002,3.35,0.014,6.692,0.005,10.013C207.462,415.089,207.002,421.384,208.12,427.028z M210.008,354.507
			c-0.395,4.931-0.82,9.854-1.3,14.763c-4.64-1.672-10.124-2.082-14.871-2.831c2.06-1.117,3.993-2.654,5.698-3.887
			C203.096,359.979,206.435,357.072,210.008,354.507z M137.376,377.817c12.213-3.206,25.709-5.703,38.297-4.263
			c6.757,0.773,13.355,2.186,20.165,2.539c3.761,0.195,8.216,0.703,12.247,0.191c-0.349,4.845-0.499,9.734-0.566,14.626
			c-3.207,0.733-6.454,2.082-9.376,2.854c-5.986,1.581-12.07,3.981-18.206,4.873c-9.706,1.411-21.954-1.839-32.518-3.902
			c-12.853-2.51-26.066-2.795-38.819-5.955c-3.387-0.839-6.758-1.275-10.156-1.562C111.48,384.548,124.542,381.185,137.376,377.817z
			 M85.203,397.336c0.018-1.052-0.028-3.474,0.327-5.292c1.561,0.621,3.205,1.104,4.959,1.474c6.28,1.324,12.501,2.247,18.749,3.767
			c13.032,3.169,26.643,3.56,39.784,6.13c8.276,1.618,17.374,3.819,25.997,3.66c-0.343,1.572-0.42,3.222-0.379,4.431
			c0.039,1.128,0.081,2.277,0.133,3.43c-0.139-0.024-0.276-0.059-0.415-0.081c-7.369-1.162-15.534-0.283-22.914,0.41
			c-16.176,1.519-32.415,1.193-48.616,2.464c-5.223,0.41-10.432,0.899-15.635,1.459c0.266-0.816,0.324-1.75,0.083-2.781
			C85.849,410.307,85.096,403.619,85.203,397.336z M132.865,501c-2.149-0.304-4.245-0.82-6.25-1.641
			c-5.348-2.189-9.951-5.346-15.018-8.056c-6.09-3.258-12.69-5.605-19.012-8.339c-5.161-2.232-10.246-5.014-15.243-7.599
			c-5.144-2.661-13.782-5.717-15.163-11.86c-1.335-5.936-2.029-12.305-2.498-18.375c-0.253-3.272-0.425-6.516-0.767-9.784
			c-0.083-0.795-0.129-1.63-0.216-2.442c0.097-0.005,0.193-0.011,0.29-0.016c3.453,2.816,7.789,4.645,11.958,6.12
			c4.335,1.534,8.567,2.832,12.691,4.921c4.075,2.063,7.855,4.607,12.012,6.513c6.938,3.181,13.381,7.434,20.381,10.432
			c3.863,1.655,7.863,2.986,11.682,4.749c1.73,0.798,3.462,1.726,5.254,2.462C130.789,478.762,132.04,490.171,132.865,501z
			 M129.693,458.347c-3.299-1.437-6.729-2.541-10.097-3.792c-7.355-2.73-14.223-6.925-21.467-9.995
			c-7.852-3.328-14.817-7.602-23.066-10.068c-2.259-0.675-4.499-1.394-6.73-2.143c0.054-0.001,0.11-0.005,0.165-0.006
			c3.573-0.056,7.12-0.486,10.663-0.915c7.874-0.954,15.756-1.712,23.666-2.31c14.127-1.067,28.315-0.583,42.419-1.721
			c7.297-0.589,14.521-1.052,21.845-1.159c8.257-0.121,15.579,3.304,23.04,6.495c5.651,2.416,11.36,4.1,17.186,6.04
			c4.845,1.613,10.174,2.453,14.629,5.013c0.12,0.069-4.927,1.967-5.563,2.034c-2.473,0.26-4.959,0.571-7.464,1.033
			c-5.509,1.017-11.02,2.021-16.504,3.164c-16.165,3.37-32.181,7.46-48.343,10.9c-2.326,0.495-4.405,1.057-6.772,0.654
			C134.593,461.11,132.183,459.431,129.693,458.347z M202.257,488.701c-12.649,3.193-25.549,5.076-38.252,7.945
			c-6.81,1.538-14.629,3.845-22.267,4.503c-0.549-5.065-1.751-10.109-1.921-15.223c-0.185-5.525-0.282-11.043-0.861-16.534
			c7.561-0.014,15.789-3.052,23.119-4.643c8.368-1.817,16.852-3.419,25.135-5.563c8.038-2.08,16.289-3.564,24.434-5.144
			c7.548-1.465,15.285-3.081,22.936-3.69c0.155-0.012,0.3-0.048,0.448-0.079c0.458,2.147,0.103,4.351-0.053,6.642
			c-0.476,6.989-1.396,15.254,1.407,21.796C225.083,482.146,213.691,485.814,202.257,488.701z M437.182,409.264
			c-0.574,10.396-1.459,20.78-4.077,30.889c-2.668,10.304-7.285,19.628-13.938,27.949c-6.732,8.42-16.014,11.943-26.083,15.059
			c-21.974,6.8-46.224,9.479-69.167,8.529c-5.752-0.238-11.505-0.181-17.249-0.402c-5.765-0.222-11.585-1.826-17.233-2.945
			c-10.952-2.17-22.193-4.01-32.668-8.023c-4.013-1.538-9.398-3.11-10.715-7.656c-1.419-4.9-0.618-11.508-0.728-16.589
			c-0.212-9.753-3.739-16.916-12.65-21.409c-3.477-1.753-8.653-3.37-10.818-6.903c-2.421-3.949-1.412-10.211-1.422-14.603
			c-0.029-11.872,0.219-23.712,0.406-35.57c0.404-25.621,1.847-51.31,2.598-76.956c0.4-13.671,0.551-27.443,0.404-41.118
			c-0.097-9.062,0.977-18.81-0.001-28.017c4.084,1.783,8.265,3.213,12.608,4.498c0.674,8.215,2.691,16.254,3.139,24.506
			c0.583,10.727-0.523,21.463-1.652,32.119c-1.135,10.717-1.736,21.321-1.116,32.102c0.271,4.707,0.809,9.398,1.442,14.068
			c0.736,5.432,0.541,10.77,0.589,16.237c0.045,5.124-0.562,10.18-0.572,15.29c-0.012,5.822,0.099,11.547-0.522,17.347
			c-1.092,10.207-2.358,21.027-0.907,31.261c2.371,16.715,15.088,32.111,29.157,40.43c7.388,4.368,16.23,7.778,24.616,9.883
			c9.493,2.383,19.488,4.731,29.248,5.618c10.741,0.975,21.899,0.182,32.628-0.676c10.069-0.805,20.104-2.416,29.734-5.497
			c7.548-2.415,15.16-5.538,20.768-11.332c5.954-6.151,9.943-14.265,12.867-22.261c3.234-8.846,5.902-18.666,6.954-28.037
			c0.524-4.665,0.711-9.374,0.76-14.066c0.054-5.216-1.024-10.298-1.099-15.498c-0.089-6.159,1.156-12.164,1.331-18.281
			c0.149-5.21-0.284-10.268,0.329-15.477c1.44-12.246,2.35-24.626,1.832-36.973c-0.476-11.354-2.943-21.919-1.249-33.293
			c0.81-5.437,1.699-10.972,2.08-16.456c0.394-5.672-0.406-10.589-0.94-16.08c3.072-0.672,6.231-1.299,9.346-2.082
			c0.082,4.842,1.213,9.58,1.145,14.435c-0.083,5.952,0.019,11.776,0.252,17.729c0.414,10.562,0.662,21.228,0.667,31.801
			c0.01,23.638,0.725,47.199,1.116,70.83C438.589,385.534,437.838,397.399,437.182,409.264z M445.458,222.226
			c-5.856,5.816-16.074,6.553-23.797,8.137c-9.009,1.848-17.963,3.746-27.053,5.168c-9.951,1.556-19.843,2.768-29.889,3.416
			c-8.198,0.528-16.473,0.038-24.702,0.213c-0.641-5.779,1.936-9.614,4.987-14.351c7.823,1.572,17.139,0.496,24.452-0.216
			c9.892-0.964,19.832-1.894,29.661-3.366c10.103-1.513,20.104-3.398,30.149-5.196c4.87-0.872,9.921-2.26,14.59-3.9
			c2.085-0.732,3.638-1.938,5.201-3.148c0.036,0.136,0.074,0.27,0.108,0.406C450.376,214.191,448.963,218.745,445.458,222.226z
			 M447.931,199.576c-0.277,1.097-0.318,2.163-0.24,3.214c-1.949,0.361-3.723,1.12-5.895,1.866
			c-4.077,1.399-8.461,2.658-12.675,3.556c-9.887,2.107-19.908,3.78-29.904,5.318c-10.539,1.623-21.201,2.651-31.803,3.802
			c-4.8,0.521-9.593,0.669-14.416,0.828c-1.474,0.049-2.961,0.056-4.443,0.102c1.438-3.146,2.622-6.357,3.985-9.721
			c0.119-0.294,0.241-0.584,0.362-0.877c1.861,0.074,3.761-0.107,5.695-0.239c4.644-0.317,9.297-0.696,13.922-1.222
			c9.284-1.056,18.661-2.531,27.854-4.186c9.935-1.79,19.803-3.716,29.572-6.277c5.501-1.442,12.452-2.01,18.117-4.301
			c0.54,1.173,1.616,2.767,1.597,3.884C449.638,196.61,448.261,198.268,447.931,199.576z M447.771,181.854
			c-0.195,0.565-0.342,1.115-0.467,1.66c-1.726,0.325-3.422,0.869-5.262,1.255c-4.459,0.934-8.773,1.85-13.161,3.095
			c-9.356,2.655-18.83,4.659-28.363,6.551c-8.912,1.768-17.956,3.381-26.929,4.802c-5.86,0.928-12.497,1.421-18.516,3.103
			c1.207-3.173,2.156-6.405,2.257-9.981c0.039-1.381-0.08-2.733-0.313-4.054c5.215,0.993,11.049,0.544,15.84,0.368
			c9.505-0.351,19.013-2.354,28.435-3.53c10.402-1.298,20.99-3.326,30.836-6.982c6.396-2.375,14.107-4.124,20.242-7.754
			c0.004,0.095,0.019,0.19,0.02,0.284C452.429,174.549,449.012,178.264,447.771,181.854z"/>
	</g>
</g>
<g>
</g>
<g>
</g>
<g>
</g>
<g>
</g>
<g>
</g>
<g>
</g>
<g>
</g>
<g>
</g>
<g>
</g>
<g>
</g>
<g>
</g>
<g>
</g>
<g>
</g>
<g>
</g>
<g>
</g>
</svg>
