<svg height="496pt" viewBox="0 0 496 496" width="496pt" xmlns="http://www.w3.org/2000/svg"><path d="m248 0c-44.113281 0-80 35.886719-80 80v248c0 4.425781 3.574219 8 8 8h40v80c0 17.648438 14.351562 32 32 32s32-14.351562 32-32v-80h40c4.425781 0 8-3.574219 8-8v-248c0-44.113281-35.886719-80-80-80zm-64 160v-64h128v64zm128 16v64h-128v-64zm-48 240c0 8.824219-7.175781 16-16 16s-16-7.175781-16-16v-80h32zm-80-96v-64h128v64zm0-240c0-35.289062 28.710938-64 64-64s64 28.710938 64 64zm0 0"/><path d="m456 48h-64c-22.054688 0-40 17.945312-40 40v288c0 4.425781 3.574219 8 8 8h40v88c0 13.230469 10.769531 24 24 24s24-10.769531 24-24v-88h40c4.425781 0 8-3.574219 8-8v-288c0-22.054688-17.945312-40-40-40zm-72 17.472656v86.527344c0 13.230469 10.769531 24 24 24s24-10.769531 24-24v-16c0-4.414062 3.585938-8 8-8s8 3.585938 8 8v48c0 13.230469 10.769531 24 24 24 2.816406 0 5.488281-.574219 8-1.472656v81.472656h-112v-200c0-10.414062 6.710938-19.214844 16-22.527344zm48 406.527344c0 4.414062-3.585938 8-8 8s-8-3.585938-8-8v-88h16zm-64-104v-64h112v64zm104-176c-4.414062 0-8-3.585938-8-8v-48c0-13.230469-10.769531-24-24-24s-24 10.769531-24 24v16c0 4.414062-3.585938 8-8 8s-8-3.585938-8-8v-88h56c13.230469 0 24 10.769531 24 24v96c0 4.414062-3.585938 8-8 8zm0 0"/><path d="m104 48h-64c-22.054688 0-40 17.945312-40 40v288c0 4.425781 3.574219 8 8 8h40v88c0 13.230469 10.769531 24 24 24s24-10.769531 24-24v-88h40c4.425781 0 8-3.574219 8-8v-288c0-22.054688-17.945312-40-40-40zm24 40v200h-112v-81.472656c2.511719.898437 5.183594 1.472656 8 1.472656 13.230469 0 24-10.769531 24-24v-48c0-4.414062 3.585938-8 8-8s8 3.585938 8 8v16c0 13.230469 10.769531 24 24 24s24-10.769531 24-24v-86.527344c9.289062 3.3125 16 12.113282 16 22.527344zm-112 0c0-13.230469 10.769531-24 24-24h56v88c0 4.414062-3.585938 8-8 8s-8-3.585938-8-8v-16c0-13.230469-10.769531-24-24-24s-24 10.769531-24 24v48c0 4.414062-3.585938 8-8 8s-8-3.585938-8-8zm64 384c0 4.414062-3.585938 8-8 8s-8-3.585938-8-8v-88h16zm-64-104v-64h112v64zm0 0"/></svg>