<svg height="496pt" viewBox="0 0 496 496" width="496pt" xmlns="http://www.w3.org/2000/svg"><path d="m472 448h-8v-72c0-10.648438-4.246094-20.273438-11.054688-27.449219 17.65625-33.296875 27.054688-70.609375 27.054688-108.550781 0-16.769531-1.800781-33.488281-5.335938-49.707031l-15.632812 3.417969c3.296875 15.09375 4.96875 30.671874 4.96875 46.289062 0 34.65625-8.40625 68.734375-24.222656 99.261719-4.847656-2.085938-10.175782-3.261719-15.777344-3.261719h-8v-72c0-22.058594-17.945312-40-40-40h-8v-72c0-22.058594-17.945312-40-40-40h-72v-16.707031c3.414062-.878907 6.609375-2.589844 9.121094-5.101563 9.597656-9.601562 14.878906-22.351562 14.878906-35.929687 0-10.917969-3.609375-21.742188-10.167969-30.488281l-15.433593-20.574219c-2.0625-2.753907-5.65625-3.871094-8.925782-2.792969-3.273437 1.097656-5.472656 4.144531-5.472656 7.59375v24.78125c0 .863281-.550781 1.640625-1.375 1.914062-13.535156 4.503907-22.625 17.121094-22.625 31.382813 0 5.113281 1.207031 10.222656 3.496094 14.800781l2.078125 4.160156c3.378906 6.757813 10.167969 10.960938 17.730469 10.960938h.695312v16h-72c-22.054688 0-40 17.941406-40 40v72h-8c-22.054688 0-40 17.941406-40 40v72h-8c-5.601562 0-10.929688 1.175781-15.777344 3.261719-15.816406-30.527344-24.222656-64.605469-24.222656-99.261719 0-15.617188 1.671875-31.195312 4.976562-46.296875l-15.632812-3.417969c-3.542969 16.226563-5.34375 32.945313-5.34375 49.714844 0 37.941406 9.398438 75.253906 27.054688 108.550781-6.808594 7.175781-11.054688 16.800781-11.054688 27.449219v72h-8c-13.230469 0-24 10.765625-24 24 0 13.230469 10.769531 24 24 24h448c13.230469 0 24-10.769531 24-24 0-13.234375-10.769531-24-24-24zm-236.113281-370.121094-2.078125-4.167968c-1.183594-2.351563-1.808594-5-1.808594-7.632813 0-7.359375 4.695312-13.878906 11.679688-16.207031 7.367187-2.457032 12.320312-9.328125 12.320312-17.089844v-.78125l1.039062 1.382812c4.488282 5.984376 6.960938 13.40625 6.960938 20.886719 0 9.296875-3.625 18.039063-10.191406 24.617188-.710938.703125-1.695313 1.113281-2.703125 1.113281h-11.800781c-1.457032 0-2.761719-.808594-3.417969-2.121094zm-67.886719 50.121094h160c13.230469 0 24 10.765625 24 24v7.964844c-.679688.808594-1.34375 1.640625-1.953125 2.546875l-1.375 2.046875c-2.9375 4.367187-6.40625 4.367187-9.34375 0l-1.375-2.046875c-4.488281-6.679688-11.03125-10.511719-17.953125-10.511719s-13.464844 3.832031-17.953125 10.511719l-1.375 2.046875c-2.9375 4.367187-6.40625 4.367187-9.34375 0l-1.375-2.046875c-4.488281-6.679688-11.03125-10.511719-17.953125-10.511719s-13.464844 3.832031-17.953125 10.511719l-1.375 2.046875c-2.9375 4.367187-6.40625 4.367187-9.34375 0l-1.375-2.046875c-4.488281-6.679688-11.03125-10.511719-17.953125-10.511719s-13.464844 3.832031-17.953125 10.511719l-1.375 2.046875c-2.9375 4.367187-6.40625 4.367187-9.34375 0l-1.375-2.046875c-4.488281-6.679688-11.03125-10.511719-17.953125-10.511719s-13.464844 3.832031-17.953125 10.511719l-1.375 2.046875c-2.9375 4.367187-6.40625 4.367187-9.34375 0l-1.367187-2.039063c-.609376-.90625-1.273438-1.746093-1.960938-2.554687v-7.964844c0-13.234375 10.769531-24 24-24zm-24 54.054688c2.550781 1.175781 5.222656 1.945312 8 1.945312 6.921875 0 13.464844-3.832031 17.953125-10.511719l1.375-2.050781c2.9375-4.367188 6.40625-4.367188 9.34375 0l1.375 2.050781c4.488281 6.679688 11.03125 10.511719 17.953125 10.511719s13.464844-3.832031 17.953125-10.511719l1.375-2.050781c2.9375-4.367188 6.40625-4.367188 9.34375 0l1.375 2.050781c4.488281 6.679688 11.03125 10.511719 17.953125 10.511719s13.464844-3.832031 17.953125-10.511719l1.375-2.050781c2.9375-4.367188 6.40625-4.367188 9.34375 0l1.375 2.050781c4.488281 6.679688 11.03125 10.511719 17.953125 10.511719s13.464844-3.832031 17.953125-10.511719l1.375-2.050781c2.9375-4.367188 6.40625-4.367188 9.34375 0l1.375 2.050781c4.488281 6.679688 11.03125 10.511719 17.953125 10.511719 2.777344 0 5.449219-.769531 8-1.945312v41.945312h-208zm-24 57.945312h256c13.230469 0 24 10.765625 24 24v7.964844c-.679688.808594-1.34375 1.640625-1.953125 2.546875l-1.375 2.046875c-2.9375 4.367187-6.40625 4.367187-9.34375 0l-1.375-2.046875c-4.488281-6.679688-11.03125-10.511719-17.953125-10.511719s-13.464844 3.832031-17.953125 10.511719l-1.375 2.046875c-2.9375 4.367187-6.40625 4.367187-9.34375 0l-1.375-2.046875c-4.488281-6.679688-11.03125-10.511719-17.953125-10.511719s-13.464844 3.832031-17.953125 10.511719l-1.375 2.046875c-2.9375 4.367187-6.40625 4.367187-9.34375 0l-1.375-2.046875c-4.488281-6.679688-11.03125-10.511719-17.953125-10.511719s-13.464844 3.832031-17.953125 10.511719l-1.375 2.046875c-2.9375 4.367187-6.40625 4.367187-9.34375 0l-1.375-2.046875c-4.488281-6.679688-11.03125-10.511719-17.953125-10.511719s-13.464844 3.832031-17.953125 10.511719l-1.375 2.046875c-2.9375 4.367187-6.40625 4.367187-9.34375 0l-1.375-2.046875c-4.488281-6.679688-11.03125-10.511719-17.953125-10.511719s-13.464844 3.832031-17.953125 10.511719l-1.375 2.046875c-2.9375 4.367187-6.40625 4.367187-9.34375 0l-1.375-2.046875c-4.488281-6.679688-11.03125-10.511719-17.953125-10.511719s-13.464844 3.832031-17.953125 10.511719l-1.375 2.046875c-2.9375 4.367187-6.40625 4.367187-9.34375 0l-1.367187-2.039063c-.609376-.90625-1.273438-1.746093-1.960938-2.554687v-7.964844c0-13.234375 10.769531-24 24-24zm-24 54.054688c2.550781 1.175781 5.222656 1.945312 8 1.945312 6.921875 0 13.464844-3.832031 17.953125-10.511719l1.375-2.050781c2.9375-4.367188 6.40625-4.367188 9.34375 0l1.375 2.050781c4.488281 6.679688 11.03125 10.511719 17.953125 10.511719s13.464844-3.832031 17.953125-10.511719l1.375-2.050781c2.9375-4.367188 6.40625-4.367188 9.34375 0l1.375 2.050781c4.488281 6.679688 11.03125 10.511719 17.953125 10.511719s13.464844-3.832031 17.953125-10.511719l1.375-2.050781c2.9375-4.367188 6.40625-4.367188 9.34375 0l1.375 2.050781c4.488281 6.679688 11.03125 10.511719 17.953125 10.511719s13.464844-3.832031 17.953125-10.511719l1.375-2.050781c2.9375-4.367188 6.40625-4.367188 9.34375 0l1.375 2.050781c4.488281 6.679688 11.03125 10.511719 17.953125 10.511719s13.464844-3.832031 17.953125-10.511719l1.375-2.050781c2.9375-4.367188 6.40625-4.367188 9.34375 0l1.375 2.050781c4.488281 6.679688 11.03125 10.511719 17.953125 10.511719s13.464844-3.832031 17.953125-10.511719l1.375-2.050781c2.9375-4.367188 6.40625-4.367188 9.34375 0l1.375 2.050781c4.488281 6.679688 11.03125 10.511719 17.953125 10.511719 2.777344 0 5.449219-.769531 8-1.945312v41.945312h-304zm328 57.945312c13.230469 0 24 10.765625 24 24v7.605469l-3.328125 4.960937c-2.9375 4.367188-6.40625 4.367188-9.34375 0l-1.375-2.046875c-4.488281-6.6875-11.03125-10.519531-17.953125-10.519531s-13.464844 3.832031-17.953125 10.511719l-1.375 2.046875c-2.9375 4.367187-6.40625 4.367187-9.34375 0l-1.375-2.046875c-4.488281-6.679688-11.03125-10.511719-17.953125-10.511719s-13.464844 3.832031-17.953125 10.511719l-1.375 2.046875c-2.9375 4.367187-6.40625 4.367187-9.34375 0l-1.375-2.046875c-4.488281-6.679688-11.03125-10.511719-17.953125-10.511719s-13.464844 3.832031-17.953125 10.511719l-1.375 2.046875c-2.9375 4.367187-6.40625 4.367187-9.34375 0l-1.375-2.046875c-4.488281-6.679688-11.03125-10.511719-17.953125-10.511719s-13.464844 3.832031-17.953125 10.511719l-1.375 2.046875c-2.9375 4.367187-6.40625 4.367187-9.34375 0l-1.375-2.046875c-4.488281-6.679688-11.03125-10.511719-17.953125-10.511719s-13.464844 3.832031-17.953125 10.511719l-1.375 2.046875c-2.9375 4.367187-6.40625 4.367187-9.34375 0l-1.375-2.046875c-4.488281-6.679688-11.03125-10.511719-17.953125-10.511719s-13.464844 3.832031-17.953125 10.511719l-1.375 2.046875c-2.9375 4.367187-6.40625 4.367187-9.34375 0l-1.375-2.046875c-4.488281-6.679688-11.03125-10.511719-17.953125-10.511719s-13.464844 3.832031-17.953125 10.511719l-1.375 2.046875c-2.9375 4.367187-6.40625 4.367187-9.34375 0l-1.375-2.046875c-4.488281-6.679688-11.03125-10.511719-17.953125-10.511719s-13.464844 3.832031-17.953125 10.511719l-1.375 2.046875c-2.9375 4.367187-6.40625 4.367187-9.34375 0l-3.328125-4.953125v-7.605469c0-13.234375 10.769531-24 24-24zm-376 54.054688c2.550781 1.175781 5.222656 1.945312 8 1.945312 6.921875 0 13.464844-3.832031 17.953125-10.511719l1.375-2.050781c2.9375-4.367188 6.40625-4.367188 9.34375 0l1.375 2.050781c4.488281 6.679688 11.03125 10.511719 17.953125 10.511719s13.464844-3.832031 17.953125-10.511719l1.375-2.050781c2.9375-4.367188 6.40625-4.367188 9.34375 0l1.375 2.050781c4.488281 6.679688 11.03125 10.511719 17.953125 10.511719s13.464844-3.832031 17.953125-10.511719l1.375-2.050781c2.9375-4.367188 6.40625-4.367188 9.34375 0l1.375 2.050781c4.488281 6.679688 11.03125 10.511719 17.953125 10.511719s13.464844-3.832031 17.953125-10.511719l1.375-2.050781c2.9375-4.367188 6.40625-4.367188 9.34375 0l1.375 2.050781c4.488281 6.679688 11.03125 10.511719 17.953125 10.511719s13.464844-3.832031 17.953125-10.511719l1.375-2.050781c2.9375-4.367188 6.40625-4.367188 9.34375 0l1.375 2.050781c4.488281 6.679688 11.03125 10.511719 17.953125 10.511719s13.464844-3.832031 17.953125-10.511719l1.375-2.050781c2.9375-4.367188 6.40625-4.367188 9.34375 0l1.375 2.050781c4.488281 6.679688 11.03125 10.511719 17.953125 10.511719s13.464844-3.832031 17.953125-10.511719l1.375-2.050781c2.9375-4.367188 6.40625-4.367188 9.34375 0l1.375 2.050781c4.488281 6.679688 11.03125 10.511719 17.953125 10.511719s13.464844-3.832031 17.953125-10.511719l1.375-2.050781c2.9375-4.367188 6.40625-4.367188 9.34375 0l1.375 2.050781c4.488281 6.679688 11.03125 10.511719 17.953125 10.511719 2.777344 0 5.449219-.769531 8-1.945312v41.945312h-400zm424 73.945312h-448c-4.40625 0-8-3.59375-8-8 0-4.410156 3.59375-8 8-8h448c4.40625 0 8 3.589844 8 8 0 4.40625-3.59375 8-8 8zm0 0"/><path d="m224.847656 25.222656-1.695312-15.902344c-49.816406 5.300782-95.664063 26.148438-132.585938 60.269532l10.859375 11.753906c34.382813-31.777344 77.054688-51.175781 123.421875-56.121094zm0 0"/><path d="m401.457031 66c-34-30.015625-75.609375-49.257812-120.328125-55.65625l-2.265625 15.832031c41.617188 5.949219 80.34375 23.863281 112 51.808594zm0 0"/><path d="m22.113281 168 30.3125 15.160156c1.117188.558594 2.351563.839844 3.574219.839844s2.457031-.28125 3.574219-.839844l30.3125-15.160156c13.640625-6.816406 22.113281-20.53125 22.113281-35.777344v-2.535156c0-7.921875-2.328125-15.59375-6.71875-22.183594l-5.875-8.816406c-4.460938-6.6875-11.925781-10.6875-19.964844-10.6875h-.808594c-6.410156 0-12.441406 2.496094-16.976562 7.03125l-5.65625 5.65625-5.65625-5.65625c-4.527344-4.535156-10.558594-7.03125-16.976562-7.03125h-.808594c-8.039063 0-15.503906 4-19.964844 10.6875l-5.875 8.816406c-4.390625 6.589844-6.71875 14.261719-6.71875 22.183594v2.535156c0 15.246094 8.472656 28.960938 22.113281 35.777344zm-6.113281-38.3125c0-4.753906 1.390625-9.351562 4.03125-13.3125l5.871094-8.816406c1.488281-2.222656 3.976562-3.558594 6.65625-3.558594h.808594c2.136718 0 4.152343.832031 5.664062 2.34375l11.3125 11.3125c3.128906 3.125 8.183594 3.125 11.3125 0l11.3125-11.3125c1.511719-1.511719 3.527344-2.34375 5.664062-2.34375h.808594c2.679688 0 5.167969 1.335938 6.65625 3.558594l5.871094 8.816406c2.640625 3.960938 4.03125 8.558594 4.03125 13.3125v2.535156c0 9.152344-5.078125 17.375-13.265625 21.464844l-26.734375 13.367188-26.734375-13.367188c-8.1875-4.089844-13.265625-12.3125-13.265625-21.464844zm0 0"/><path d="m489.28125 107.503906-5.875-8.816406c-4.460938-6.6875-11.925781-10.6875-19.964844-10.6875h-.808594c-6.410156 0-12.441406 2.496094-16.976562 7.03125l-5.65625 5.65625-5.65625-5.65625c-4.527344-4.535156-10.558594-7.03125-16.976562-7.03125h-.808594c-8.039063 0-15.503906 4-19.964844 10.6875l-5.875 8.816406c-4.390625 6.589844-6.71875 14.261719-6.71875 22.183594v2.535156c0 15.246094 8.472656 28.960938 22.113281 35.777344l30.3125 15.160156c1.117188.558594 2.351563.839844 3.574219.839844s2.457031-.28125 3.574219-.839844l30.3125-15.160156c13.640625-6.816406 22.113281-20.53125 22.113281-35.777344v-2.535156c0-7.921875-2.328125-15.59375-6.71875-22.183594zm-9.28125 24.71875c0 9.152344-5.078125 17.375-13.265625 21.464844l-26.734375 13.367188-26.734375-13.367188c-8.1875-4.089844-13.265625-12.3125-13.265625-21.464844v-2.535156c0-4.753906 1.390625-9.351562 4.03125-13.3125l5.871094-8.816406c1.488281-2.222656 3.976562-3.558594 6.65625-3.558594h.808594c2.136718 0 4.152343.832031 5.664062 2.34375l11.3125 11.3125c3.128906 3.125 8.183594 3.125 11.3125 0l11.3125-11.3125c1.511719-1.511719 3.527344-2.34375 5.664062-2.34375h.808594c2.679688 0 5.167969 1.335938 6.65625 3.558594l5.871094 8.816406c2.640625 3.960938 4.03125 8.558594 4.03125 13.3125zm0 0"/></svg>