<?xml version="1.0" encoding="iso-8859-1"?>
<!-- Generator: Adobe Illustrator 19.0.0, SVG Export Plug-In . SVG Version: 6.00 Build 0)  -->
<svg version="1.1" id="Capa_1" xmlns="http://www.w3.org/2000/svg" xmlns:xlink="http://www.w3.org/1999/xlink" x="0px" y="0px"
	 viewBox="0 0 512 512" style="enable-background:new 0 0 512 512;" xml:space="preserve">
<g>
	<g>
		<g>
			<path d="M405.622,224.641c-1.424,1.634-3.478,2.571-5.635,2.571c-2.158,0-4.212-0.937-5.636-2.571
				c-2.723-3.123-7.46-3.447-10.582-0.727c-3.122,2.722-3.448,7.459-0.727,10.582c4.273,4.903,10.449,7.715,16.944,7.715
				c6.494,0,12.67-2.812,16.943-7.715c2.722-3.123,2.396-7.86-0.727-10.582C413.079,221.194,408.344,221.519,405.622,224.641z"/>
			<path d="M504.722,270.494c-1.249-1.01-2.588-1.844-3.983-2.508c1.335-6.66,2.02-13.459,2.02-20.304
				c0-18.142-4.794-35.978-13.863-51.58c-2.083-3.582-6.672-4.797-10.254-2.715c-3.581,2.082-4.796,6.672-2.715,10.253
				c7.74,13.316,11.832,28.546,11.832,44.042c0,6.631-0.752,13.207-2.214,19.614c-1.506,0.557-2.966,1.304-4.345,2.247
				c-10.198,6.973-21.887,12.542-34.74,16.554c-0.213,0.067-0.41,0.163-0.614,0.247c-0.035,0.014-0.07,0.027-0.105,0.042
				c-0.647,0.278-1.239,0.638-1.77,1.072c-0.041,0.033-0.081,0.069-0.122,0.103c-0.292,0.248-0.561,0.515-0.81,0.803
				c-0.059,0.068-0.119,0.134-0.176,0.203c-0.123,0.152-0.24,0.307-0.35,0.469c-0.112,0.163-0.215,0.333-0.314,0.505
				c-0.101,0.177-0.195,0.357-0.282,0.543c-0.087,0.185-0.168,0.375-0.24,0.568c-0.043,0.117-0.09,0.231-0.128,0.35
				c-0.094,0.296-0.167,0.602-0.225,0.913c-0.018,0.1-0.032,0.2-0.046,0.301c-0.047,0.327-0.078,0.659-0.081,0.999
				c0,0.014-0.003,0.027-0.003,0.04v27.629c0,5.638-4.014,10.357-9.334,11.449c-0.76,0.156-1.547,0.238-2.352,0.238
				c-0.805,0-1.592-0.082-2.352-0.238c-5.32-1.092-9.334-5.81-9.334-11.449v-20.676c0-2.067-0.854-4.043-2.359-5.461
				c-1.505-1.417-3.521-2.148-5.593-2.025c-3.569,0.215-6.803,0.32-9.884,0.32c-30.209,0-59.053-8.346-81.215-23.5
				c-1.379-0.943-2.839-1.689-4.345-2.247c-1.462-6.407-2.214-12.984-2.214-19.615c0-48.398,39.374-87.772,87.772-87.772
				c19.678,0,38.272,6.361,53.773,18.396c3.273,2.541,7.984,1.947,10.523-1.325c2.541-3.272,1.947-7.983-1.324-10.523
				c-18.158-14.096-39.933-21.547-62.973-21.547c-56.669,0-102.772,46.103-102.772,102.772c0,6.845,0.685,13.644,2.02,20.303
				c-1.395,0.665-2.734,1.499-3.984,2.509c-6.726,5.436-9.011,14.063-5.898,22.07h-58.179c-2.843-7.485-9.813-13.055-18.178-13.713
				c-10.841-0.853-21.723-1.433-32.621-1.759c-0.015,0-0.029-0.002-0.045-0.002c-0.004,0-0.007,0-0.011,0
				c-15.039-0.448-30.109-0.4-45.147,0.155c-0.005,0-0.011-0.001-0.016-0.001c-0.026,0-0.051,0.004-0.077,0.004
				c-12.194,0.452-24.366,1.229-36.48,2.34l-73.629,6.75C10.735,287.644,0,299.409,0,313.704v14.944
				c0,14.295,10.735,26.06,24.971,27.365l12.693,1.164c4.109,0.381,7.775-2.659,8.153-6.784c0.378-4.124-2.659-7.775-6.784-8.153
				l-12.693-1.164C19.875,340.483,15,335.141,15,328.649v-14.944c0-6.492,4.875-11.835,11.34-12.428l73.629-6.75
				c9.201-0.844,18.436-1.492,27.688-1.947v57.193c-9.252-0.455-18.487-1.103-27.688-1.947l-25.852-2.37
				c-4.114-0.379-7.775,2.659-8.153,6.784c-0.378,4.124,2.659,7.775,6.784,8.153l25.852,2.37c11.966,1.097,23.988,1.864,36.03,2.318
				c0.175,0.012,0.349,0.027,0.527,0.027c0.021,0,0.041-0.003,0.062-0.003c8.307,0.306,16.623,0.467,24.938,0.467
				c17.653,0,35.302-0.69,52.842-2.07c8.365-0.658,15.335-6.228,18.177-13.713h106.772c18.271,11.096,39.587,17.302,62.041,17.302
				c48.681,0,92.057-29.116,110.505-74.174C513.811,284.811,511.546,276.011,504.722,270.494z M172.83,350.441
				c-10.055,0.193-20.12,0.161-30.174-0.104v-58.322c10.055-0.266,20.12-0.297,30.174-0.105V350.441z M217.556,342.343
				c0,3.227-2.52,5.952-5.735,6.205c-7.977,0.628-15.978,1.1-23.991,1.436v-57.615c8.013,0.336,16.014,0.808,23.99,1.436
				c3.217,0.253,5.736,2.979,5.736,6.205V342.343z M232.556,334.789v-27.225h64.131c5.895,10.209,13.175,19.348,21.55,27.225
				H232.556z M399.987,352.09c-19.936,0-38.852-5.585-54.99-15.57c-0.452-0.376-0.953-0.693-1.486-0.956
				c-14.778-9.495-27.122-22.725-35.644-38.761c-0.077-0.159-0.158-0.316-0.245-0.469c-1.547-2.946-2.979-5.975-4.26-9.102
				c-1.112-2.718,0.552-4.453,1.318-5.073c0.416-0.337,1.529-1.105,2.992-1.105c0.794,0,1.69,0.227,2.634,0.872
				c24.632,16.843,56.481,26.118,89.681,26.118c0.933,0,1.877-0.009,2.836-0.026v12.869c0,11.956,7.903,22.1,18.759,25.484
				c2.505,0.781,5.168,1.202,7.927,1.202c0.366,0,0.73-0.007,1.093-0.022C420.86,350.517,410.566,352.09,399.987,352.09z
				 M496.611,287.232c-9.773,23.87-27.545,42.622-49.503,53.697c0.051-0.045,0.099-0.093,0.149-0.139
				c0.198-0.177,0.391-0.358,0.584-0.54c0.132-0.125,0.265-0.248,0.394-0.376c0.198-0.195,0.39-0.396,0.582-0.598
				c0.116-0.122,0.234-0.241,0.348-0.365c0.21-0.228,0.412-0.463,0.614-0.699c0.089-0.103,0.18-0.204,0.267-0.308
				c0.28-0.337,0.552-0.68,0.814-1.03c0.005-0.007,0.011-0.014,0.017-0.021c0.271-0.361,0.531-0.73,0.784-1.105
				c0.065-0.097,0.125-0.198,0.189-0.295c0.181-0.277,0.361-0.555,0.532-0.838c0.083-0.138,0.161-0.28,0.241-0.419
				c0.144-0.249,0.288-0.499,0.424-0.753c0.084-0.157,0.163-0.317,0.244-0.476c0.124-0.243,0.247-0.486,0.363-0.733
				c0.08-0.169,0.155-0.339,0.231-0.51c0.109-0.243,0.215-0.487,0.317-0.734c0.073-0.177,0.142-0.356,0.212-0.536
				c0.094-0.245,0.186-0.49,0.273-0.739c0.065-0.185,0.128-0.37,0.189-0.557c0.082-0.25,0.159-0.501,0.233-0.754
				c0.055-0.188,0.11-0.376,0.161-0.566c0.069-0.256,0.133-0.515,0.195-0.774c0.045-0.19,0.091-0.381,0.132-0.573
				c0.057-0.266,0.107-0.534,0.156-0.802c0.034-0.189,0.071-0.377,0.102-0.567c0.045-0.281,0.081-0.566,0.117-0.85
				c0.023-0.181,0.05-0.361,0.069-0.543c0.034-0.315,0.056-0.633,0.079-0.951c0.011-0.154,0.027-0.307,0.035-0.462
				c0.025-0.474,0.039-0.951,0.039-1.432v-22.213c12.227-4.283,23.466-9.905,33.473-16.747c0-0.001,0-0.001,0-0.001
				c2.681-1.832,4.983-0.285,5.625,0.233C496.059,282.78,497.723,284.514,496.611,287.232z"/>
			<path d="M349.667,222.147v7.108c0,4.142,3.357,7.5,7.5,7.5c4.142,0,7.5-3.358,7.5-7.5v-7.108c0-4.142-3.358-7.5-7.5-7.5
				C353.024,214.647,349.667,218.005,349.667,222.147z"/>
			<path d="M435.307,222.147v7.108c0,4.142,3.357,7.5,7.5,7.5c4.142,0,7.5-3.358,7.5-7.5v-7.108c0-4.142-3.358-7.5-7.5-7.5
				C438.664,214.647,435.307,218.005,435.307,222.147z"/>
		</g>
	</g>
</g>
<g>
</g>
<g>
</g>
<g>
</g>
<g>
</g>
<g>
</g>
<g>
</g>
<g>
</g>
<g>
</g>
<g>
</g>
<g>
</g>
<g>
</g>
<g>
</g>
<g>
</g>
<g>
</g>
<g>
</g>
</svg>
