<?xml version="1.0" encoding="iso-8859-1"?>
<!-- Generator: Adobe Illustrator 17.1.0, SVG Export Plug-In . SVG Version: 6.00 Build 0)  -->
<!DOCTYPE svg PUBLIC "-//W3C//DTD SVG 1.1//EN" "http://www.w3.org/Graphics/SVG/1.1/DTD/svg11.dtd">
<svg version="1.1" id="Capa_1" xmlns="http://www.w3.org/2000/svg" xmlns:xlink="http://www.w3.org/1999/xlink" x="0px" y="0px"
	 viewBox="0 0 363.473 363.473" style="enable-background:new 0 0 363.473 363.473;" xml:space="preserve">
<path d="M362.656,118.743c-2.24-7.959-9.257-13.308-17.461-13.308h-36.429c0.603-3.233,1.183-6.518,1.732-9.869
	c0.681-4.151,2.187-18.538-7.008-29.362c-5.284-6.221-12.904-9.647-21.458-9.647H30.553c-9.303,0-17.486,3.599-23.045,10.135
	c-9.095,10.695-7.667,24.642-7.013,28.661c7.511,46.155,20.377,81.204,39.331,107.148c20.055,27.449,33.614,71.828,34.648,75.275
	c4.417,16.641,20.608,29.14,37.843,29.14h86.377c17.161,0,33.287-12.391,37.786-28.927c3.133-9.724,11.045-31.556,20.648-50.989
	c15.232-0.554,42.86-2.671,55.912-10.65c3.04-1.858,12.29-7.512,32.339-45.957C366.042,130.774,364.084,123.821,362.656,118.743z
	 M275.685,91.557c-2.639,15.732-5.89,29.855-9.783,42.482H45.188c-3.947-12.642-7.218-26.765-9.846-42.482H275.685z
	 M294.295,186.732c-2.501,1.146-7.819,2.28-14.517,3.216c8.278-14.096,15.16-30.522,20.73-49.512h20.736
	C312.978,157.818,300.034,181.026,294.295,186.732z"/>
<g>
</g>
<g>
</g>
<g>
</g>
<g>
</g>
<g>
</g>
<g>
</g>
<g>
</g>
<g>
</g>
<g>
</g>
<g>
</g>
<g>
</g>
<g>
</g>
<g>
</g>
<g>
</g>
<g>
</g>
</svg>
