<?xml version="1.0" encoding="iso-8859-1"?>
<!-- Generator: Adobe Illustrator 17.1.0, SVG Export Plug-In . SVG Version: 6.00 Build 0)  -->
<!DOCTYPE svg PUBLIC "-//W3C//DTD SVG 1.1//EN" "http://www.w3.org/Graphics/SVG/1.1/DTD/svg11.dtd">
<svg version="1.1" id="Capa_1" xmlns="http://www.w3.org/2000/svg" xmlns:xlink="http://www.w3.org/1999/xlink" x="0px" y="0px"
	 viewBox="0 0 365.793 365.793" style="enable-background:new 0 0 365.793 365.793;" xml:space="preserve">
<g>
	<path d="M322.318,167.785c-2.473-8.789-9.652-14.467-18.29-14.467H261.05l1.438-17.493l0.012-0.285
		c0-7.367-3.464-21.298-16.576-21.298H59.587c-13.558,0-17.14,12.956-17.14,19.807v0.142l13.92,169.981
		c2.354,26.712,15.404,44.905,38.789,54.074c19.246,7.546,41.271,7.546,57.354,7.546c31.381,0,89.284-0.007,95.823-58.278
		c10.473-1.836,23.929-5.357,34.942-12.089c4.601-2.813,16.823-10.283,30.7-63.101C316.977,220.898,326.451,182.471,322.318,167.785
		z M280.34,222.604c-6.647,25.544-13.252,39.849-16.167,43.458c-3.702,2.107-8.222,3.732-12.797,4.969l6.798-82.713h29.261
		C286.277,196.55,284.049,208.349,280.34,222.604z"/>
	<path d="M149.122,93.303c0.983,0.668,2.136,1.021,3.333,1.021h0.013c3.277,0,5.943-2.665,5.943-5.94c0-0.56-0.077-1.113-0.23-1.648
		c-2.957-12.962-1.571-23.376,4.119-30.957c6.978-9.297,10.067-21.234,8.264-31.929C168.966,14.342,163.855,6.439,155.788,1
		c-1.987-1.344-4.724-1.331-6.699,0.028c-2.025,1.393-2.975,3.843-2.417,6.252c3.198,13.644,0.275,22.314-7.048,35.488
		c-4.691,8.438-6.606,17.924-5.393,26.711C135.611,79.449,140.767,87.693,149.122,93.303z"/>
	<path d="M202.403,89.118c0.926,0.63,2.006,0.963,3.125,0.963h0.006c3.071,0,5.569-2.499,5.569-5.569
		c0-0.514-0.071-1.022-0.21-1.515c-2.077-9.152-1.125-16.462,2.829-21.73c5.323-7.089,7.678-16.207,6.299-24.387
		c-1.23-7.318-5.165-13.403-11.376-17.594c-1.855-1.253-4.366-1.269-6.285,0.036c-1.875,1.299-2.776,3.662-2.248,5.849
		c2.262,9.646,0.169,15.821-5.063,25.23c-3.575,6.431-5.033,13.669-4.104,20.38C192.004,78.458,195.975,84.805,202.403,89.118z"/>
	<path d="M96.266,89.115c0.926,0.632,2.008,0.967,3.129,0.967h0.006c3.07,0,5.568-2.499,5.568-5.569c0-0.514-0.07-1.022-0.21-1.515
		c-2.077-9.151-1.125-16.463,2.829-21.731c5.323-7.089,7.678-16.207,6.299-24.387c-1.23-7.318-5.165-13.403-11.376-17.594
		c-1.856-1.254-4.371-1.268-6.285,0.036c-1.875,1.299-2.776,3.662-2.248,5.849c2.261,9.646,0.169,15.821-5.063,25.23
		c-3.575,6.431-5.033,13.669-4.104,20.38C85.872,78.458,89.843,84.805,96.266,89.115z"/>
</g>
<g>
</g>
<g>
</g>
<g>
</g>
<g>
</g>
<g>
</g>
<g>
</g>
<g>
</g>
<g>
</g>
<g>
</g>
<g>
</g>
<g>
</g>
<g>
</g>
<g>
</g>
<g>
</g>
<g>
</g>
</svg>
