<?xml version="1.0" encoding="iso-8859-1"?>
<!-- Generator: Adobe Illustrator 17.1.0, SVG Export Plug-In . SVG Version: 6.00 Build 0)  -->
<!DOCTYPE svg PUBLIC "-//W3C//DTD SVG 1.1//EN" "http://www.w3.org/Graphics/SVG/1.1/DTD/svg11.dtd">
<svg version="1.1" id="Capa_1" xmlns="http://www.w3.org/2000/svg" xmlns:xlink="http://www.w3.org/1999/xlink" x="0px" y="0px"
	 viewBox="0 0 345.855 345.855" style="enable-background:new 0 0 345.855 345.855;" xml:space="preserve">
<g>
	<path d="M118.803,121.385c1.042,0.71,2.265,1.085,3.536,1.085h0.016c3.474,0,6.301-2.825,6.301-6.297
		c0-0.605-0.085-1.202-0.253-1.779c-3.787-16.582-1.987-29.944,5.349-39.718c8.551-11.393,12.339-26.009,10.133-39.097
		c-1.947-11.588-8.177-21.22-18.01-27.849c-2.107-1.428-5.006-1.415-7.104,0.029c-2.144,1.476-3.151,4.072-2.561,6.628
		c4.089,17.443,0.376,28.484-8.936,45.236c-5.754,10.349-8.104,21.972-6.618,32.728C102.336,104.503,108.62,114.549,118.803,121.385
		z"/>
	<path d="M172.497,118.584c0.984,0.673,2.133,1.028,3.323,1.028h0.008c3.261,0,5.914-2.654,5.914-5.916
		c0-0.556-0.079-1.107-0.233-1.642c-2.875-12.638-1.525-22.789,4.015-30.171c6.839-9.108,9.866-20.807,8.1-31.292
		c-1.567-9.32-6.579-17.07-14.494-22.411c-1.971-1.332-4.638-1.349-6.679,0.041c-1.991,1.382-2.945,3.892-2.382,6.209
		c3.119,13.307,0.266,21.767-6.884,34.623c-4.599,8.272-6.475,17.569-5.283,26.176C159.252,105.008,164.31,113.091,172.497,118.584z
		"/>
	<path d="M340.478,158.984c-3.923-4.618-9.536-7.161-15.806-7.161h-30.452c0.469-5.261-0.373-12.138-4.228-16.676
		c-2.693-3.17-6.532-4.845-11.104-4.845H17.089c-6.78,0-10.682,2.915-12.761,5.36c-4.269,5.02-4.855,12.548-3.981,17.92
		C7.553,197.856,23.12,238.071,44.18,266.82c12.673,17.299,27.113,30.556,43.213,39.728c-2.361,3.369-3.759,7.461-3.759,11.878
		c0,11.447,9.313,20.76,20.761,20.76h85.55c11.448,0,20.761-9.313,20.761-20.76c0-4.342-1.344-8.373-3.632-11.709
		c12.945-7.3,24.787-17.215,35.47-29.728c51.058-4.739,95.753-53.682,102.963-97.68C345.97,176.476,346.979,166.638,340.478,158.984
		z M267.98,237.875c9.341-18.806,15.779-38.296,20.217-56.051h26.006C307.959,203.005,289.988,225.522,267.98,237.875z"/>
</g>
<g>
</g>
<g>
</g>
<g>
</g>
<g>
</g>
<g>
</g>
<g>
</g>
<g>
</g>
<g>
</g>
<g>
</g>
<g>
</g>
<g>
</g>
<g>
</g>
<g>
</g>
<g>
</g>
<g>
</g>
</svg>
